<svg width="11" height="12" viewBox="0 0 11 12" fill="none" xmlns="http://www.w3.org/2000/svg">
<g id="on-off">
<g id="story-icon">
<mask id="path-1-inside-1" fill="white">
<path d="M11 6.5C11 9.53757 8.53757 12 5.5 12C2.46243 12 0 9.53757 0 6.5C0 3.46243 2.46243 1 5.5 1C8.53757 1 11 3.46243 11 6.5ZM1.65 6.5C1.65 8.6263 3.3737 10.35 5.5 10.35C7.6263 10.35 9.35 8.6263 9.35 6.5C9.35 4.3737 7.6263 2.65 5.5 2.65C3.3737 2.65 1.65 4.3737 1.65 6.5Z"/>
</mask>
<path d="M11 6.5C11 9.53757 8.53757 12 5.5 12C2.46243 12 0 9.53757 0 6.5C0 3.46243 2.46243 1 5.5 1C8.53757 1 11 3.46243 11 6.5ZM1.65 6.5C1.65 8.6263 3.3737 10.35 5.5 10.35C7.6263 10.35 9.35 8.6263 9.35 6.5C9.35 4.3737 7.6263 2.65 5.5 2.65C3.3737 2.65 1.65 4.3737 1.65 6.5Z" fill="white" stroke="black" stroke-width="0.2" mask="url(#path-1-inside-1)"/>
</g>
<rect id="Rectangle 25" x="5.05" y="0.05" width="0.9" height="4.9" fill="white" stroke="black" stroke-width="0.1"/>
</g>
</svg>
