<svg width="12" height="12" viewBox="0 0 12 12" fill="none" xmlns="http://www.w3.org/2000/svg">
<g id="pokeball">
<circle id="story-icon" cx="6" cy="6" r="5.875" fill="white" stroke="black" stroke-width="0.25"/>
<g id="story-icon_2">
<mask id="path-2-inside-1" fill="white">
<path d="M12 6C12 5.21207 11.8448 4.43185 11.5433 3.7039C11.2417 2.97595 10.7998 2.31451 10.2426 1.75736C9.68549 1.20021 9.02405 0.758251 8.2961 0.456723C7.56815 0.155195 6.78793 -3.44416e-08 6 0C5.21207 3.44416e-08 4.43185 0.155195 3.7039 0.456723C2.97595 0.758251 2.31451 1.20021 1.75736 1.75736C1.20021 2.31451 0.758251 2.97595 0.456723 3.7039C0.155194 4.43185 -6.88831e-08 5.21207 0 6L6 6H12Z"/>
</mask>
<path d="M12 6C12 5.21207 11.8448 4.43185 11.5433 3.7039C11.2417 2.97595 10.7998 2.31451 10.2426 1.75736C9.68549 1.20021 9.02405 0.758251 8.2961 0.456723C7.56815 0.155195 6.78793 -3.44416e-08 6 0C5.21207 3.44416e-08 4.43185 0.155195 3.7039 0.456723C2.97595 0.758251 2.31451 1.20021 1.75736 1.75736C1.20021 2.31451 0.758251 2.97595 0.456723 3.7039C0.155194 4.43185 -6.88831e-08 5.21207 0 6L6 6H12Z" fill="#FF0018" stroke="black" stroke-width="0.5" mask="url(#path-2-inside-1)"/>
</g>
<g id="story-icon_3">
<mask id="path-3-inside-2" fill="white">
<path d="M0 6C-6.88831e-08 6.78793 0.155194 7.56815 0.456723 8.2961C0.758251 9.02405 1.20021 9.68549 1.75736 10.2426C2.31451 10.7998 2.97595 11.2417 3.7039 11.5433C4.43185 11.8448 5.21207 12 6 12C6.78793 12 7.56815 11.8448 8.2961 11.5433C9.02405 11.2417 9.68549 10.7998 10.2426 10.2426C10.7998 9.68549 11.2417 9.02405 11.5433 8.2961C11.8448 7.56815 12 6.78793 12 6H6L0 6Z"/>
</mask>
<path d="M0 6C-6.88831e-08 6.78793 0.155194 7.56815 0.456723 8.2961C0.758251 9.02405 1.20021 9.68549 1.75736 10.2426C2.31451 10.7998 2.97595 11.2417 3.7039 11.5433C4.43185 11.8448 5.21207 12 6 12C6.78793 12 7.56815 11.8448 8.2961 11.5433C9.02405 11.2417 9.68549 10.7998 10.2426 10.2426C10.7998 9.68549 11.2417 9.02405 11.5433 8.2961C11.8448 7.56815 12 6.78793 12 6H6L0 6Z" fill="white" stroke="black" stroke-width="0.5" mask="url(#path-3-inside-2)"/>
</g>
<circle id="story-icon_4" cx="6" cy="6" r="1.75" fill="white" stroke="black" stroke-width="0.5"/>
<circle id="story-icon_5" cx="6" cy="6" r="0.95" fill="white" stroke="black" stroke-width="0.1"/>
</g>
</svg>
